<svg id="Delivery_Truck" enable-background="new 0 0 64 64" height="512" viewBox="0 0 64 64" width="512" xmlns="http://www.w3.org/2000/svg"><g><path d="m64 35.46021c-.00012-1.59985-.70013-3.1297-1.90997-4.17957l-4.15509-3.60565-1.41986-7.36499c-.00079-.00415-.0036-.00739-.00446-.01154l-.23059-1.19781c-.36005-1.85999-2-3.21997-3.90002-3.21997h-10.71003c-.69 0-1.33997.17999-1.90997.48999v-3.06c0-2.37-1.92999-4.29999-4.29999-4.29999h-28.97003c-2.38 0-4.31 1.92999-4.31 4.29999v26.39001c-1.27002.43-2.17999 1.62995-2.17999 3.04999v1.85999c0 1.77002 1.44 3.21997 3.21997 3.21997h3.12469c.51111 4.02948 3.95441 7.15869 8.12109 7.15869s7.60999-3.12921 8.12109-7.15869h19.25079c.51111 4.02948 3.95422 7.15869 8.12006 7.15869 4.16766 0 7.61096-3.12921 8.12207-7.15869h2.04024c2.14001 0 3.88-1.73999 3.88-3.88995v-8.48004-.00031c0-.00006 0-.00006 0-.00012zm-9.35522-13.92225 1.09021 5.65405h-7.49933c-.45367 0-.83881-.38416-.83881-.83984v-3.97534c0-.46277.37708-.83887.83881-.83887zm-36.78437-10.45733h6.22363v9.79901l-1.84198-2.00433c-.65131-.70776-1.88739-.70776-2.5387 0l-1.84296 2.00531v-9.79999zm-11.37042 0h9.3056v10.44629c0 .75311.4527 1.41553 1.15442 1.68872.21674.08472.44159.12604.66339.12604.49603 0 .97797-.20465 1.32983-.58777l2.02948-2.20801 2.02954 2.20801c.50916.55347 1.29053.73499 1.99219.46173.70172-.27319 1.15442-.93561 1.15442-1.68872v-10.44629h9.31116c1.22998 0 2.23999 1 2.23999 2.23004v6.53998 19.67999h-19.46393c-1.12994-.58868-2.41058-.92676-3.77032-.92676s-2.64038.33807-3.77032.92676h-6.44544v-26.21997c0-1.23004 1-2.23004 2.23999-2.23004zm-4.42999 33.53003v-1.85999c0-.17999.03998-.35004.12-.5.17999-.39001.58002-.65002 1.03998-.65002h4.9165c-.95642 1.1626-1.59247 2.59406-1.7915 4.16003h-3.125c-.63996 0-1.15998-.51001-1.15998-1.15002zm12.40576 8.31384c-3.37952 0-6.12891-2.74841-6.12891-6.12787 0-3.37952 2.74939-6.12793 6.12891-6.12793s6.12891 2.74841 6.12891 6.12793c0 3.37946-2.74939 6.12787-6.12891 6.12787zm35.49194 0c-3.37952 0-6.12793-2.74841-6.12793-6.12787 0-3.37952 2.74841-6.12793 6.12793-6.12793s6.12988 2.74841 6.12988 6.12793c.00001 3.37946-2.75036 6.12787-6.12988 6.12787zm10.1623-7.16382h-2.04053c-.51196-4.02863-3.95477-7.1568-8.12177-7.1568-4.16516 0-7.60779 3.12817-8.11975 7.1568h-19.2514c-.19904-1.56598-.83508-2.99744-1.7915-4.16003h17.93494c.57001 0 1.03003-.46997 1.03003-1.03998v-20.71002c0-1.04999.85999-1.90997 1.90997-1.90997h10.71001c.90381 0 1.68781.65167 1.86499 1.53247h-6.00934c-1.60101 0-2.90363 1.30261-2.90363 2.90369v3.97534c0 1.60205 1.30261 2.90466 2.90363 2.90466h8.36987l4.13446 3.5838c.48999.42554.82886.98206 1.02069 1.58728h-.60785c-1.72003 0-3.11938 1.39941-3.11938 3.11938 0 1.72205 1.39935 3.1214 3.11938 3.1214h.78718v3.27197c0 1.01001-.82 1.82001-1.82 1.82001zm1.81518-9.26794v2.11115h-.78235c-.58075 0-1.05457-.47382-1.05457-1.05658 0-.58075.47382-1.05457 1.05457-1.05457z"/><path d="m14.46576 42.48889c-2.37531 0-4.30707 1.9317-4.30707 4.30707 0 2.37531 1.93176 4.30701 4.30707 4.30701 2.37537 0 4.30804-1.9317 4.30804-4.30701 0-2.37537-1.93267-4.30707-4.30804-4.30707zm0 6.54932c-1.23608 0-2.24225-1.00623-2.24225-2.24225 0-1.23608 1.00616-2.24231 2.24225-2.24231 1.23706 0 2.24329 1.00623 2.24329 2.24231 0 1.23602-1.00623 2.24225-2.24329 2.24225z"/><path d="m49.9577 42.48889c-2.37537 0-4.30707 1.9317-4.30707 4.30707 0 2.37531 1.9317 4.30701 4.30707 4.30701 2.37531 0 4.30908-1.9317 4.30908-4.30701 0-2.37537-1.93377-4.30707-4.30908-4.30707zm0 6.54932c-1.23608 0-2.24225-1.00623-2.24225-2.24225 0-1.23608 1.00616-2.24231 2.24225-2.24231 1.23804 0 2.24426 1.00623 2.24426 2.24231.00001 1.23602-1.00622 2.24225-2.24426 2.24225z"/></g></svg>