<svg id="Layer_1" enable-background="new 0 0 512 512" height="512" viewBox="0 0 512 512" width="512" xmlns="http://www.w3.org/2000/svg"><path d="m390.882 232.259c-21.102 0-40.958 5.43-58.253 14.958-15.661-12.223-33.333-21.861-52.784-28.798 16.16-19.204 27.528-41.719 33.121-65.889 6.417-27.731 4.616-56.225-5.071-80.232-16.908-41.906-54.96-66.343-104.399-67.046l-.171-.002-.171.002c-49.439.703-87.492 25.14-104.4 67.045-9.687 24.008-11.487 52.501-5.07 80.233 5.593 24.168 16.959 46.681 33.116 65.884-41.257 14.729-74.467 41.594-96.77 78.536-23.465 38.862-33.7 88.005-28.822 138.376.355 3.669 2.377 6.972 5.483 8.956 57.655 36.835 116.352 57.592 174.458 61.694 7.216.51 14.437.764 21.674.764 50.857 0 102.161-12.574 152.809-37.482 11.159 3.401 22.993 5.238 35.25 5.238 66.785 0 121.118-54.333 121.118-121.118s-54.333-121.119-121.118-121.119zm59.631 44.516-136.233 136.234c-12.85-16.47-20.516-37.171-20.516-59.631 0-53.552 43.567-97.119 97.118-97.119 22.46 0 43.161 7.667 59.631 20.516zm-329.503-195.497c13.29-32.938 42.518-51.41 82.314-52.026 39.797.616 69.024 19.088 82.314 52.026 16.723 41.446 3.299 95.288-32.646 130.933-16.752 16.614-33.463 25.038-49.669 25.038-16.207 0-32.918-8.424-49.669-25.038-35.943-35.646-49.368-89.487-32.644-130.933zm-96.408 345.925c-6.822-92.841 40.135-166.283 121.164-189.69 18.65 15.755 37.968 23.735 57.559 23.735s38.909-7.981 57.559-23.736c18.838 5.427 35.912 13.518 50.973 24.154-25.76 22.228-42.093 55.098-42.093 91.712 0 43.279 22.822 81.322 57.058 102.745-101.579 43.755-200.698 34.235-302.22-28.92zm366.28 23.293c-22.46 0-43.161-7.667-59.631-20.516l136.233-136.234c12.85 16.47 20.517 37.172 20.517 59.632-.001 53.551-43.568 97.118-97.119 97.118z"/></svg>