<svg id="Layer_1" height="512" viewBox="0 0 24 24" width="512" xmlns="http://www.w3.org/2000/svg"><path d="m12.5 19.5h-6.2c-.1 0-.3-.1-.3-.3s.1-.2.3-.2h5.7c.2 0 .4-.2.5-.4l.5-2.5c0-.1 0-.3-.1-.4s-.2-.2-.4-.2h-6.6v-.1c0-.2-.3-.4-.5-.4h-.9c-.3 0-.5.2-.5.5s.2.5.5.5h.5l.5 2.3c-.3.2-.5.6-.5 1 0 .6.5 1.1 1.1 1.2-.1.1-.1.1-.1.3 0 .6.6 1.2 1.3 1.2s1.3-.6 1.3-1.3c0-.1 0-.2-.1-.3h1.1c0 .1-.1.2-.1.3 0 .7.6 1.3 1.3 1.3s1.3-.6 1.3-1.3c0-.1 0-.2-.1-.3h.6c.3 0 .5-.2.5-.5s-.3-.4-.6-.4zm-.6-3-.3 1.5h-5.2l-.3-1.5zm-4.4 4.3c0 .2-.5.2-.5 0 0-.1.1-.3.3-.3s.2.1.2.3zm3.5 0c0 .3-.5.3-.5 0 0-.1.1-.3.3-.3s.2.1.2.3z"/><path d="m16.5 2h-.5-8-.5c-1.4 0-2.5 1.1-2.5 2.5v9.5c0 .3.2.5.5.5s.5-.2.5-.5v-9.5c0-.8.7-1.5 1.5-1.5h.2l.3.4c.5.7 1.2 1.1 2.1 1.1h3.9c.8 0 1.6-.4 2.1-1.1l.2-.4h.2c.8 0 1.5.7 1.5 1.5v15h-4c-.3 0-.5.2-.5.5s.2.5.5.5h3.6c-.3.3-.7.5-1.1.5h-2.5c-.3 0-.5.2-.5.5s.2.5.5.5h2.5c1.4 0 2.5-1.1 2.5-2.5v-15c0-1.4-1.1-2.5-2.5-2.5zm-2.6 1.5h-3.9c-.4 0-.8-.2-1-.5h6c-.2.3-.6.5-1.1.5z"/><path d="m7.5 8.5h2c.3 0 .5-.2.5-.5s-.2-.5-.5-.5h-2c-.3 0-.5.2-.5.5s.2.5.5.5z"/><path d="m7.5 6.5h3.5c.3 0 .5-.2.5-.5s-.2-.5-.5-.5h-3.5c-.3 0-.5.2-.5.5s.2.5.5.5z"/><path d="m13 8.5h3.5c.3 0 .5-.2.5-.5v-2c0-.3-.2-.5-.5-.5h-3.5c-.3 0-.5.2-.5.5v2c0 .3.2.5.5.5zm.5-2h2.5v1h-2.5z"/><path d="m7.5 13.5h2c.3 0 .5-.2.5-.5s-.2-.5-.5-.5h-2c-.3 0-.5.2-.5.5s.2.5.5.5z"/><path d="m7.5 11.5h3.5c.3 0 .5-.2.5-.5s-.2-.5-.5-.5h-3.5c-.3 0-.5.2-.5.5s.2.5.5.5z"/><path d="m17 13v-2c0-.3-.2-.5-.5-.5h-3.5c-.3 0-.5.2-.5.5v2c0 .3.2.5.5.5h3.5c.3 0 .5-.2.5-.5zm-1-.5h-2.5v-1h2.5z"/></svg>