<svg id="Layer_1" enable-background="new 0 0 512 512" height="512" viewBox="0 0 512 512" width="512" xmlns="http://www.w3.org/2000/svg"><path d="m443.995 67.511-54.333-54.332c-3.388-3.388-7.71-5.179-12.501-5.179h-296.656c-9.747 0-17.677 7.93-17.677 17.677v460.646c0 9.747 7.93 17.678 17.677 17.678h350.99c9.747 0 17.677-7.931 17.677-17.678v-406.312c0-4.789-1.79-9.111-5.177-12.5zm-54.826-32.197 32.69 32.689h-32.69zm42.326 452.686h-350.99c-.909 0-1.677-.769-1.677-1.678v-460.645c0-.909.768-1.677 1.677-1.677h292.665v47.164c0 7.079 5.759 12.839 12.839 12.839h47.164v402.319c-.001.909-.769 1.678-1.678 1.678zm-255.498-295.693c40.352 0 73.181-32.829 73.181-73.181 0-40.353-32.829-73.182-73.181-73.182s-73.181 32.829-73.181 73.182c0 40.352 32.829 73.181 73.181 73.181zm0-130.363c31.53 0 57.181 25.651 57.181 57.182 0 31.529-25.651 57.181-57.181 57.181s-57.181-25.651-57.181-57.181 25.651-57.182 57.181-57.182zm11.84 77.225c.641-.741 1.263-1.774 1.014-3.821-.231-1.907-.774-6.375-14.091-8.562-21.395-3.511-25.153-15.669-25.49-22.604-.548-11.295 6.928-20.794 18.727-23.998v-2.305c0-4.418 3.582-8 8-8s8 3.582 8 8v2.232c7.616 1.985 14.752 7.034 18.565 16.117 1.71 4.073-.205 8.763-4.279 10.473-4.075 1.712-8.763-.205-10.473-4.279-3.134-7.463-10.892-7.885-14.985-6.955-1.847.419-7.851 2.229-7.574 7.939.075 1.545.274 5.649 12.101 7.59 16.696 2.743 25.909 10.287 27.382 22.423.743 6.122-.915 11.729-4.796 16.217-3.697 4.274-9.395 7.339-15.941 8.715v2.021c0 4.418-3.582 8-8 8s-8-3.582-8-8v-2.159c-10.331-2.488-18.202-9.707-20.673-19.618-1.069-4.287 1.54-8.629 5.827-9.698 4.288-1.069 8.628 1.541 9.697 5.827 1.603 6.429 8.459 8.569 13.81 8.432 4.722-.113 9.215-1.716 11.179-3.987zm48.781 172.587h-34.307c-4.418 0-8 3.582-8 8v123.695c0 4.418 3.582 8 8 8h34.307c4.418 0 8-3.582 8-8v-123.695c0-4.418-3.581-8-8-8zm-8 123.695h-18.307v-107.695h18.307zm81.07-100.298h-34.307c-4.418 0-8 3.582-8 8v100.298c0 4.418 3.582 8 8 8h34.307c4.418 0 8-3.582 8-8v-100.298c0-4.418-3.582-8-8-8zm-8 100.298h-18.307v-84.298h18.307zm81.07-168.696h-34.307c-4.418 0-8 3.582-8 8v168.695c0 4.418 3.582 8 8 8h34.307c4.418 0 8-3.582 8-8v-168.695c0-4.418-3.581-8-8-8zm-8 168.695h-18.307v-152.695h18.307zm-211.21-65.814h-34.306c-4.418 0-8 3.582-8 8v65.814c0 4.418 3.582 8 8 8h34.306c4.418 0 8-3.582 8-8v-65.814c0-4.418-3.581-8-8-8zm-8 65.814h-18.306v-49.814h18.306zm190.122-183.345.593-2.997-48.343 43.98c-2.321 2.109-5.662 2.67-8.543 1.432l-68.787-29.579-69.356 52.662c-1.446 1.099-3.146 1.629-4.832 1.629-2.416 0-4.804-1.09-6.377-3.162-2.672-3.519-1.985-8.537 1.534-11.209l73.07-55.482c2.295-1.744 5.351-2.116 7.998-.979l68.338 29.386 47.084-42.835-6.506.024c-.01 0-.02 0-.03 0-4.405 0-7.983-3.562-8-7.971-.016-4.418 3.553-8.013 7.971-8.029l27.3-.1h.029c2.388 0 4.652 1.066 6.172 2.91 1.526 1.851 2.142 4.288 1.676 6.642l-5.294 26.782c-.753 3.811-4.097 6.449-7.839 6.45-.515 0-1.037-.051-1.56-.154-4.336-.857-7.155-5.065-6.298-9.4zm59.839-143.722c0 4.418-3.582 8-8 8h-65.186c-4.418 0-8-3.582-8-8s3.582-8 8-8h65.186c4.419 0 8 3.582 8 8zm0 22.38c0 4.418-3.582 8-8 8h-65.186c-4.418 0-8-3.582-8-8s3.582-8 8-8h65.186c4.419 0 8 3.582 8 8zm-125.275 12.474h18.873c7.845 0 14.228-6.383 14.228-14.228v-18.873c0-7.845-6.383-14.228-14.228-14.228h-18.873c-7.845 0-14.228 6.383-14.228 14.228v18.873c.001 7.845 6.383 14.228 14.228 14.228zm1.773-31.328h15.329v15.328h-15.329zm123.502 75.6c0 4.418-3.582 8-8 8h-65.186c-4.418 0-8-3.582-8-8s3.582-8 8-8h65.186c4.419 0 8 3.582 8 8zm0-22.381c0 4.418-3.582 8-8 8h-65.186c-4.418 0-8-3.582-8-8s3.582-8 8-8h65.186c4.419 0 8 3.582 8 8zm-125.275 34.854h18.873c7.845 0 14.228-6.383 14.228-14.228v-18.873c0-7.845-6.383-14.228-14.228-14.228h-18.873c-7.845 0-14.228 6.383-14.228 14.228v18.873c.001 7.846 6.383 14.228 14.228 14.228zm1.773-31.328h15.329v15.328h-15.329z"/></svg>