<svg id="Layer_1" enable-background="new 0 0 512 512" height="512" viewBox="0 0 512 512" width="512" xmlns="http://www.w3.org/2000/svg"><path d="m390.882 232.26c-21.102 0-40.958 5.43-58.253 14.958-15.661-12.223-33.333-21.861-52.784-28.798 16.16-19.204 27.527-41.719 33.12-65.889 6.417-27.731 4.617-56.226-5.07-80.233-16.908-41.905-54.96-66.343-104.4-67.046l-.17-.002-.17.002c-49.44.703-87.492 25.141-104.4 67.046-9.687 24.008-11.488 52.502-5.071 80.233 5.592 24.168 16.958 46.681 33.115 65.883-41.258 14.729-74.467 41.594-96.77 78.537-23.464 38.861-33.698 88.003-28.82 138.376.355 3.668 2.377 6.971 5.483 8.955 57.654 36.835 116.35 57.592 174.457 61.694 7.216.509 14.437.764 21.673.764 50.858 0 102.162-12.575 152.809-37.482 11.159 3.401 22.994 5.238 35.25 5.238 66.785 0 121.118-54.333 121.118-121.118s-54.332-121.118-121.117-121.118zm-269.872-150.983c13.29-32.938 42.518-51.41 82.314-52.026 39.797.616 69.024 19.089 82.314 52.026 16.723 41.446 3.298 95.288-32.646 130.934-16.753 16.614-33.464 25.038-49.669 25.038-16.206 0-32.917-8.424-49.669-25.038-35.943-35.646-49.367-89.487-32.644-130.934zm-96.408 345.926c-6.822-92.841 40.134-166.283 121.163-189.691 18.651 15.756 37.969 23.737 57.56 23.737s38.909-7.981 57.56-23.738c18.837 5.427 35.911 13.519 50.972 24.155-25.761 22.228-42.094 55.097-42.094 91.712 0 43.279 22.822 81.321 57.058 102.744-101.579 43.753-200.697 34.237-302.219-28.919zm366.28 23.293c-53.551 0-97.119-43.567-97.119-97.118s43.567-97.118 97.119-97.118 97.118 43.567 97.118 97.118-43.567 97.118-97.118 97.118zm12-161.167v77.989c0 6.627-5.373 12-12 12s-12-5.373-12-12v-77.989c0-6.627 5.373-12 12-12s12 5.373 12 12zm0 123.896v4.202c0 6.627-5.373 12-12 12s-12-5.373-12-12v-4.202c0-6.627 5.373-12 12-12s12 5.373 12 12z"/></svg>