
<?xml version="1.0" encoding="UTF-8"?>
<svg xmlns="http://www.w3.org/2000/svg" xmlns:xlink="http://www.w3.org/1999/xlink" version="1.1" id="Capa_1" x="0px" y="0px" viewBox="0 0 512 512" style="enable-background:new 0 0 512 512;" xml:space="preserve" width="512" height="512">
<g>
	
		<line style="fill:none;stroke:#000000;stroke-width:15;stroke-linecap:round;stroke-linejoin:round;stroke-miterlimit:10;" x1="240.625" y1="113.233" x2="267.709" y2="113.233"/>
	<path style="fill:none;stroke:#000000;stroke-width:15;stroke-linecap:round;stroke-linejoin:round;stroke-miterlimit:10;" d="&#10;&#9;&#9;M403.329,294.679V194.19 M95.91,194.19v257.302"/>
	<path style="fill:none;stroke:#000000;stroke-width:15;stroke-linecap:round;stroke-linejoin:round;stroke-miterlimit:10;" d="&#10;&#9;&#9;M453.377,315.797V135.938L254.437,7.5L45.863,135.938v157.777 M45.863,328.326v123.166"/>
	
		<line style="fill:none;stroke:#000000;stroke-width:15;stroke-linecap:round;stroke-linejoin:round;stroke-miterlimit:10;" x1="240.625" y1="83.242" x2="267.709" y2="83.242"/>
	
		<rect x="241.421" y="251.62" style="fill:none;stroke:#000000;stroke-width:15;stroke-linecap:round;stroke-linejoin:round;stroke-miterlimit:10;" width="26.033" height="35.15"/>
	
		<line style="fill:none;stroke:#000000;stroke-width:15;stroke-linecap:round;stroke-linejoin:round;stroke-miterlimit:10;" x1="18.182" y1="451.492" x2="303.717" y2="451.492"/>
	<path style="fill:none;stroke:#000000;stroke-width:15;stroke-linecap:round;stroke-linejoin:round;stroke-miterlimit:10;" d="&#10;&#9;&#9;M388.636,436.78c-20.604,0-37.315-16.668-37.315-37.219c0-20.523,16.711-37.191,37.315-37.191s37.287,16.668,37.287,37.191&#10;&#9;&#9;C425.923,420.112,409.241,436.78,388.636,436.78L388.636,436.78z M434.506,322.345c-7.247-4.309-15.176-7.625-23.56-9.751v-9.609&#10;&#9;&#9;c0-4.564-3.78-8.334-8.355-8.334h-27.908c-4.604,0-8.355,3.742-8.355,8.334v9.609c-8.384,2.126-16.313,5.443-23.589,9.751&#10;&#9;&#9;l-6.821-6.803c-3.24-3.232-8.554-3.232-11.794,0l-19.752,19.673c-3.24,3.26-3.24,8.561,0,11.792l6.821,6.803&#10;&#9;&#9;c-4.32,7.228-7.645,15.137-9.776,23.528h-9.634c-4.576,0-8.355,3.742-8.355,8.306v27.836c0,4.592,3.78,8.334,8.355,8.334h9.634&#10;&#9;&#9;c2.132,8.391,5.457,16.299,9.776,23.528l-6.821,6.803c-3.24,3.232-3.24,8.532,0,11.764l19.752,19.701&#10;&#9;&#9;c3.24,3.232,8.554,3.232,11.794,0l6.821-6.803c7.276,4.309,15.176,7.625,23.589,9.751v9.609c0,4.564,3.751,8.334,8.355,8.334&#10;&#9;&#9;h27.908c4.576,0,8.355-3.77,8.355-8.334v-9.609c8.384-2.126,16.313-5.443,23.56-9.751l6.821,6.803c3.24,3.232,8.554,3.232,11.823,0&#10;&#9;&#9;l19.723-19.701c3.24-3.232,3.24-8.532,0-11.764l-6.821-6.803c4.32-7.257,7.645-15.137,9.776-23.528h9.634&#10;&#9;&#9;c4.604,0,8.355-3.742,8.355-8.334v-27.836c0-4.564-3.751-8.306-8.355-8.306h-9.634c-2.131-8.391-5.457-16.299-9.776-23.528&#10;&#9;&#9;l6.821-6.803c3.24-3.232,3.24-8.532,0-11.792l-19.723-19.673c-3.268-3.232-8.583-3.232-11.823,0L434.506,322.345z"/>
	<path style="fill:none;stroke:#000000;stroke-width:15;stroke-linecap:round;stroke-linejoin:round;stroke-miterlimit:10;" d="&#10;&#9;&#9;M302.865,351.542h-98.418c-2.728,0-4.945-2.211-4.945-4.932v-90.029c0-2.721,2.217-4.961,4.945-4.961h99.953&#10;&#9;&#9;c2.728,0,4.974,2.239,4.974,4.961v73.673"/>
	
		<rect x="186.485" y="351.542" style="fill:none;stroke:#000000;stroke-width:15;stroke-linecap:round;stroke-linejoin:round;stroke-miterlimit:10;" width="26.033" height="35.15"/>
	<path style="fill:none;stroke:#000000;stroke-width:15;stroke-linecap:round;stroke-linejoin:round;stroke-miterlimit:10;" d="&#10;&#9;&#9;M149.539,351.542h104.898v99.95H149.539c-2.757,0-4.974-2.239-4.974-4.961v-90.029&#10;&#9;&#9;C144.565,353.781,146.782,351.542,149.539,351.542L149.539,351.542z"/>
	<path style="fill:none;stroke:#000000;stroke-width:15;stroke-linecap:round;stroke-linejoin:round;stroke-miterlimit:10;" d="&#10;&#9;&#9;M270.807,194.19h132.522h1.478c3.894,0,7.105-3.175,7.105-7.087v-19.928c0-3.912-3.211-7.087-7.105-7.087H94.432&#10;&#9;&#9;c-3.894,0-7.105,3.175-7.105,7.087v19.928c0,3.912,3.211,7.087,7.105,7.087h1.478h140.196"/>
</g>















</svg>
