<svg id="Layer_1" enable-background="new 0 0 512 512" height="512" viewBox="0 0 512 512" width="512" xmlns="http://www.w3.org/2000/svg"><path d="m453.471 311.243c4.686 4.687 4.686 12.284 0 16.971l-67.3 67.3c-2.25 2.25-5.303 3.515-8.485 3.515s-6.235-1.264-8.485-3.515l-40.908-40.908c-4.686-4.687-4.686-12.284 0-16.971 4.687-4.686 12.285-4.686 16.971 0l32.422 32.423 58.815-58.815c4.686-4.685 12.284-4.686 16.97 0zm58.529 42.135c0 66.785-54.333 121.118-121.118 121.118-12.257 0-24.091-1.836-35.25-5.238-50.647 24.908-101.951 37.481-152.809 37.481-7.237 0-14.458-.254-21.674-.763-58.106-4.103-116.802-24.859-174.457-61.694-3.106-1.984-5.128-5.287-5.483-8.956-4.878-50.372 5.356-99.515 28.819-138.376 22.303-36.942 55.512-63.807 96.771-78.536-16.157-19.202-27.523-41.715-33.116-65.883-6.417-27.731-4.616-56.225 5.07-80.233 16.909-41.906 54.961-66.343 104.401-67.045l.17-.002.17.002c49.44.703 87.492 25.14 104.4 67.046 9.687 24.007 11.487 52.501 5.07 80.232-5.593 24.17-16.961 46.685-33.121 65.889 19.451 6.937 37.123 16.575 52.783 28.798 17.295-9.528 37.151-14.958 58.254-14.958 66.787-.001 121.12 54.333 121.12 121.118zm-358.345-141.168c16.752 16.614 33.463 25.038 49.669 25.038s32.917-8.424 49.668-25.038c35.944-35.646 49.369-89.487 32.646-130.933-13.29-32.938-42.518-51.41-82.314-52.026-39.797.616-69.025 19.088-82.315 52.026-16.722 41.447-3.298 95.288 32.646 130.933zm173.167 243.912c-34.237-21.423-57.059-59.466-57.059-102.744 0-36.614 16.333-69.484 42.093-91.712-15.062-10.636-32.135-18.728-50.973-24.154-18.65 15.756-37.969 23.737-57.559 23.737s-38.908-7.981-57.559-23.736c-81.03 23.407-127.987 96.849-121.164 189.69 101.523 63.156 200.642 72.673 302.221 28.919zm161.178-102.744c0-53.551-43.567-97.119-97.118-97.119s-97.119 43.567-97.119 97.119 43.567 97.118 97.119 97.118 97.118-43.567 97.118-97.118z"/></svg>